<svg xmlns="http://www.w3.org/2000/svg" viewBox="0 0 600 600">
  <defs><linearGradient id="b" x1="0" y1="0" x2="1" y2="1"><stop stop-color="#312854"/><stop offset=".52" stop-color="#6f5ab8"/><stop offset="1" stop-color="#a9d978"/></linearGradient><radialGradient id="e"><stop stop-color="#efffcf"/><stop offset="1" stop-color="#7ab658"/></radialGradient></defs>
  <rect width="600" height="600" rx="56" fill="url(#b)"/>
  <path d="M0 460c120-62 237-74 349-45 98 25 172 25 251-4v189H0Z" fill="#1e4b36"/>
  <ellipse cx="310" cy="422" rx="214" ry="87" fill="#72a952"/>
  <path d="M282 411c2-91-5-157-19-219 31 15 65 16 96 0-18 69-22 142-8 221-20 22-50 24-69-2Z" fill="#5d493b"/>
  <g fill="#77b957"><circle cx="228" cy="182" r="73"/><circle cx="303" cy="137" r="91"/><circle cx="386" cy="184" r="78"/></g>
  <ellipse cx="307" cy="426" rx="82" ry="111" fill="none" stroke="url(#e)" stroke-width="8" opacity=".85"/>
  <text x="300" y="525" text-anchor="middle" fill="#fff" font-family="Arial,sans-serif" font-weight="900" font-size="34" letter-spacing="8">PURE ISLAND</text>
</svg>
