<svg xmlns="http://www.w3.org/2000/svg" viewBox="0 0 800 680" role="img" aria-labelledby="title desc">
  <title id="title">蛋岛</title>
  <desc id="desc">一座长着巨树的绿色蛋形音乐岛屿</desc>
  <defs>
    <linearGradient id="sea" x1="0" y1="0" x2="1" y2="1"><stop stop-color="#d8d1ff"/><stop offset="1" stop-color="#a799ed"/></linearGradient>
    <linearGradient id="land" x1=".2" y1="0" x2=".8" y2="1"><stop stop-color="#d9f99d"/><stop offset=".45" stop-color="#76b947"/><stop offset="1" stop-color="#2f6d3d"/></linearGradient>
    <linearGradient id="trunk" x1="0" y1="0" x2="1" y2="0"><stop stop-color="#243d2c"/><stop offset=".5" stop-color="#80634d"/><stop offset="1" stop-color="#304d36"/></linearGradient>
    <filter id="shadow"><feDropShadow dx="0" dy="24" stdDeviation="22" flood-color="#382b61" flood-opacity=".26"/></filter>
    <filter id="soft"><feGaussianBlur stdDeviation="18"/></filter>
  </defs>
  <ellipse cx="403" cy="565" rx="302" ry="64" fill="#6357ac" opacity=".25" filter="url(#soft)"/>
  <g filter="url(#shadow)">
    <path d="M83 463C104 332 241 248 412 257c159 8 287 102 302 220 13 101-99 154-292 155-204 2-358-55-339-169Z" fill="url(#sea)"/>
    <path d="M112 447c35-108 158-176 303-168 142 8 252 74 275 176 21 92-103 132-267 134-174 3-346-37-311-142Z" fill="url(#land)"/>
    <path d="M136 465c78-48 170-60 270-54 101 7 183 31 255 79" fill="none" stroke="#e9ffc8" stroke-width="9" stroke-linecap="round" opacity=".72"/>
    <path d="M166 508c72-36 153-45 244-39 87 6 160 24 221 57" fill="none" stroke="#b7eb82" stroke-width="6" stroke-linecap="round" opacity=".65"/>
    <path d="M229 351c51-24 113-34 179-29 67 4 121 18 170 41" fill="none" stroke="#ecffd6" stroke-width="5" stroke-linecap="round" opacity=".58"/>
  </g>
  <path d="M358 421c-38 31-71 56-118 69M443 414c45 36 92 57 147 71M378 423c-19 49-36 81-70 112M424 421c14 44 37 79 74 112" fill="none" stroke="#3d573f" stroke-width="17" stroke-linecap="round"/>
  <path d="M350 406c9-99 17-180 5-271 36 18 72 17 112 1-18 92-13 181-1 274-31 24-81 24-116-4Z" fill="url(#trunk)"/>
  <path d="M392 390c-5-91-4-174 3-251M435 394c-14-82-14-165-3-243" fill="none" stroke="#bd9c78" stroke-width="8" stroke-linecap="round" opacity=".52"/>
  <g fill="#559548">
    <circle cx="279" cy="138" r="88"/><circle cx="365" cy="98" r="112"/><circle cx="469" cy="101" r="111"/><circle cx="553" cy="158" r="90"/><circle cx="391" cy="176" r="132"/>
  </g>
  <g fill="#8ccc58" opacity=".9">
    <circle cx="313" cy="91" r="49"/><circle cx="413" cy="54" r="60"/><circle cx="510" cy="99" r="57"/><circle cx="460" cy="164" r="64"/>
  </g>
  <g fill="#d9f99d" opacity=".7"><circle cx="350" cy="58" r="18"/><circle cx="477" cy="57" r="22"/><circle cx="544" cy="137" r="17"/><circle cx="303" cy="157" r="15"/></g>
  <path d="M177 402c18-31 39-47 63-48 4 32-8 52-36 63M574 390c11-29 30-46 58-49 5 32-7 53-36 65" fill="#d9f99d"/>
  <g fill="#fff" stroke="#7c66cf" stroke-width="4"><ellipse cx="207" cy="457" rx="18" ry="24"/><ellipse cx="605" cy="463" rx="15" ry="21"/><ellipse cx="537" cy="528" rx="11" ry="15"/></g>
  <g fill="none" stroke="#fff" stroke-width="4" stroke-linecap="round" opacity=".65"><path d="M118 434c-24-23-21-42 10-57"/><path d="M672 432c27-17 30-40 9-61"/></g>
  <g fill="#fff"><path d="m149 288 7 16 17 7-17 7-7 17-7-17-17-7 17-7Z"/><path d="m648 261 5 12 13 5-13 5-5 13-5-13-13-5 13-5Z"/></g>
</svg>
